<?xml version="1.0" standalone="no" ?>
<!DOCTYPE svg PUBLIC "-//W3C//DTD SVG 1.1//EN"
  "http://www.w3.org/Graphics/SVG/1.1/DTD/svg11.dtd">
<svg
  t="1702665435842"
  class="icon"
  viewBox="0 0 1024 1024"
  version="1.1"
  xmlns="http://www.w3.org/2000/svg"
  p-id="5335"
  xmlns:xlink="http://www.w3.org/1999/xlink"
  width="200"
  height="200"
><path
    d="M792 911.2H137.6C64 911.2 4 851.2 4 777.6c0-56 34.4-105.6 85.6-124.8-4-13.6-5.6-27.2-5.6-41.6 0-87.2 71.2-158.4 157.6-158.4 29.6 0 59.2 8.8 84 24.8 47.2-68.8 124-108.8 208-108.8 140 0 253.6 114.4 253.6 254.4 0 7.2 0 13.6-0.8 20.8 75.2-2.4 137.6 58.4 137.6 133.6 1.6 74.4-58.4 133.6-132 133.6zM242.4 485.6c-69.6 0-125.6 56.8-125.6 126.4 0 16 3.2 31.2 8.8 46.4 1.6 4 1.6 8.8-0.8 13.6-2.4 4-5.6 7.2-10.4 8-45.6 11.2-77.6 51.2-77.6 98.4 0 56 45.6 101.6 101.6 101.6H792c56 0 101.6-45.6 101.6-101.6 0-56-45.6-101.6-101.6-101.6-6.4 0-12.8 0.8-19.2 1.6-4.8 0.8-10.4-0.8-14.4-4-4-4-5.6-8.8-4.8-14.4 2.4-12 3.2-24.8 3.2-36.8 0-122.4-99.2-222.4-221.6-222.4-78.4 0-149.6 40-190.4 108-2.4 4-6.4 6.4-11.2 7.2-4.8 0.8-9.6 0-12.8-3.2-22.4-17.6-49.6-27.2-78.4-27.2z"
    p-id="5336"
  /><path
    d="M792 823.2H137.6c-4.8 0-8-3.2-8-8s3.2-8 8-8H792c16 0 29.6-13.6 29.6-29.6 0-4.8 3.2-8 8-8s8 3.2 8 8c0 25.6-20.8 45.6-45.6 45.6zM910.4 552H756c-6.4 0-12.8-4-15.2-10.4-33.6-84.8-114.4-140-206.4-140-78.4 0-149.6 40-190.4 108-2.4 4-6.4 6.4-11.2 7.2-4.8 0.8-9.6 0-12.8-3.2-7.2-5.6-15.2-10.4-23.2-15.2-3.2-1.6-5.6-4-7.2-7.2-8-16-12-32-12-49.6 0-45.6 27.2-84.8 68-101.6-2.4-10.4-4-20.8-4-31.2 0-71.2 57.6-129.6 129.6-129.6 23.2 0 46.4 6.4 66.4 18.4C576 143.2 637.6 112 704.8 112c113.6 0 205.6 92.8 205.6 206.4 0 4.8 0 8.8-0.8 13.6 60.8 0 109.6 49.6 109.6 109.6 0.8 60.8-48.8 110.4-108.8 110.4z m-144-32h144c43.2 0 77.6-35.2 77.6-77.6 0-48-43.2-85.6-92.8-76-4.8 0.8-10.4-0.8-14.4-4-4-4-5.6-8.8-4.8-14.4 1.6-9.6 2.4-19.2 2.4-28.8 0-96-78.4-174.4-173.6-174.4-61.6 0-117.6 31.2-148.8 84.8-2.4 4-6.4 6.4-11.2 7.2-4.8 0.8-9.6 0-12.8-3.2-17.6-14.4-38.4-21.6-60.8-21.6-53.6 0-97.6 44-97.6 97.6 0 12 2.4 24 7.2 36 1.6 4 1.6 8.8-0.8 13.6-2.4 4-5.6 7.2-10.4 8-35.2 8-60 39.2-60 76 0 10.4 2.4 20.8 6.4 30.4 3.2 1.6 6.4 4 10.4 5.6 47.2-68.8 124-108.8 208-108.8 101.6-0.8 191.2 57.6 232 149.6z"
    p-id="5337"
  /></svg>
