<?xml version="1.0" standalone="no" ?>
<!DOCTYPE svg PUBLIC "-//W3C//DTD SVG 1.1//EN"
  "http://www.w3.org/Graphics/SVG/1.1/DTD/svg11.dtd">
<svg
  t="1702568700693"
  class="icon"
  viewBox="0 0 1024 1024"
  version="1.1"
  xmlns="http://www.w3.org/2000/svg"
  p-id="4410"
  xmlns:xlink="http://www.w3.org/1999/xlink"
  width="200"
  height="200"
><path
    d="M618 958.5H202c-44.8 0-81.3-34.1-81.3-76v-740c0-41.9 36.5-76 81.3-76h610.5c44.8 0 81.3 34.1 81.3 76v521.9c0 12.8-10.4 23.1-23.1 23.1s-23.1-10.4-23.1-23.1V142.5c0-16.4-15.7-29.7-35-29.7H202c-19.3 0-35 13.3-35 29.7v740c0 16.4 15.7 29.7 35 29.7h416c12.8 0 23.1 10.4 23.1 23.1 0.1 12.8-10.3 23.2-23.1 23.2z"
    p-id="4411"
  /><path
    d="M738.4 360.5H276c-12.8 0-23.1-10.4-23.1-23.1 0-12.8 10.4-23.1 23.1-23.1h462.5c12.8 0 23.1 10.4 23.1 23.1 0 12.8-10.4 23.1-23.2 23.1zM584.3 595.1H276c-12.8 0-23.1-10.4-23.1-23.1 0-12.8 10.4-23.1 23.1-23.1h308.3c12.8 0 23.1 10.4 23.1 23.1 0 12.7-10.3 23.1-23.1 23.1zM878.8 826.3H614.6c-12.8 0-23.1-10.4-23.1-23.1 0-12.8 10.4-23.1 23.1-23.1h264.3c12.8 0 23.1 10.4 23.1 23.1 0 12.8-10.4 23.1-23.2 23.1z"
    p-id="4412"
  /><path
    d="M746.7 958.5c-12.8 0-23.1-10.4-23.1-23.1V671.1c0-12.8 10.4-23.1 23.1-23.1 12.8 0 23.1 10.4 23.1 23.1v264.3c0 12.7-10.3 23.1-23.1 23.1z"
    p-id="4413"
  /></svg>
