<?xml version="1.0" standalone="no"?><!DOCTYPE svg PUBLIC "-//W3C//DTD SVG 1.1//EN" "http://www.w3.org/Graphics/SVG/1.1/DTD/svg11.dtd"><svg t="1701360438353" class="icon" viewBox="0 0 1024 1024" version="1.1" xmlns="http://www.w3.org/2000/svg" p-id="1664" id="mx_n_1701360438353" xmlns:xlink="http://www.w3.org/1999/xlink" width="200" height="200"><path d="M490.001497 127.287895a78.073882 78.073882 0 1 0 0 156.120019 78.073882 78.073882 0 0 0 0-156.120019zM141.748701 276.749161h30.547031v61.482488H141.665467v19.809791h30.630265v61.482488H141.637722l-0.027745 19.837536h30.685755v61.510233H141.526743l-0.05549 19.782046h30.824479v61.510234H141.27704L140.777633 693.642604c-124.463196 98.577293-63.147177 282.414372 87.007709 282.414373 150.043907 0 211.137968-183.559631 86.841241-282.414373-1.165282-188.387228-0.832344-376.74671-1.109792-565.133938-0.083234-48.054003-37.899404-83.567353-86.425069-82.013644-47.277148-1.553709-85.204297 33.904152-85.232041 82.013644l-0.11098 148.240495zM227.702108 913.714399c-103.182931 0-125.434264-147.546874-27.189909-178.149394v-266.322386h54.379818v266.322386c98.216611 30.60252 75.993022 178.149394-27.189909 178.149394zM227.702108 27.711789c52.049255-1.692433 104.597916 36.512164 104.597916 100.769133 0.360682 185.307554-0.110979 370.753832 1.054302 556.061386 129.013344 102.489311 60.344951 300.115558-93.610973 309.88173a206.893013 206.893013 0 0 1-24.88709-0.027745c-153.456518-10.348812-221.597759-207.531143-92.834118-309.853985l0.554896-121.161564h30.935458v-23.943767H122.660275l0.11098-57.348513h30.741244v-23.943767H122.826744l0.027745-57.404002h30.65801v-23.916022H122.854489l0.05549-57.376257h30.60252v-23.916022H122.937723l0.138724-167.051472C123.076447 64.223953 175.597364 26.019356 227.702108 27.711789z m13.067803 995.955273c183.198949-10.237833 259.24746-235.331438 121.605482-353.024901l-1.026558-545.573851C361.348835 45.274251 294.28964-1.198298 227.702108 0.050218 161.114575-1.198298 93.999892 45.274251 93.999892 125.06831l-0.998813 545.573851C-44.918348 788.529838 31.657314 1014.233829 215.633118 1023.722552c8.129228 0.388427 17.007566 0.360682 25.136793-0.05549zM837.727141 57.676179c73.135307 0 136.08827 52.520916 163.833074 127.681593h-71.220915c-21.973886-39.564092-46.583528-58.153112-79.988273-58.791242-65.394506-1.193027-128.375214 56.460679-128.375214 148.21275 0 79.932784 51.96602 140.111266 115.584859 141.69272 29.659197 0.721365 55.60059-11.347625 86.314089-40.174478h69.944654c-30.685755 65.228037-89.060825 109.259043-156.092274 109.259043-98.826996 0-179.037228-95.775068-179.037229-213.967938 0-118.137381 80.210232-213.912448 179.037229-213.912448zM490.001497 159.666083a45.695694 45.695694 0 1 1 0 91.446878 45.695694 45.695694 0 0 1 0-91.446878z" p-id="1665"></path></svg>