<?xml version="1.0" standalone="no"?><!DOCTYPE svg PUBLIC "-//W3C//DTD SVG 1.1//EN" "http://www.w3.org/Graphics/SVG/1.1/DTD/svg11.dtd"><svg t="1702736671925" class="icon" viewBox="0 0 1024 1024" version="1.1" xmlns="http://www.w3.org/2000/svg" p-id="8698" id="mx_n_1702736671926" xmlns:xlink="http://www.w3.org/1999/xlink" width="200" height="200"><path d="M923.156244 895.301849 86.996376 895.301849c-16.954137 0-30.699186 13.745049-30.699186 30.699186s13.745049 30.699186 30.699186 30.699186l836.159868 0c16.954137 0 30.699186-13.745049 30.699186-30.699186S940.110381 895.301849 923.156244 895.301849z" p-id="8699"></path><path d="M284.563034 609.850585l-101.317547 0c-16.954137 0-30.699186 13.745049-30.699186 30.699186s13.745049 30.699186 30.699186 30.699186l101.317547 0c16.954137 0 30.699186-13.745049 30.699186-30.699186S301.518195 609.850585 284.563034 609.850585z" p-id="8700"></path><path d="M557.437865 609.850585l-101.317547 0c-16.954137 0-30.699186 13.745049-30.699186 30.699186s13.745049 30.699186 30.699186 30.699186l101.317547 0c16.954137 0 30.699186-13.745049 30.699186-30.699186S574.392002 609.850585 557.437865 609.850585z" p-id="8701"></path><path d="M830.312696 609.850585l-101.317547 0c-16.954137 0-30.699186 13.745049-30.699186 30.699186s13.745049 30.699186 30.699186 30.699186l101.317547 0c16.954137 0 30.699186-13.745049 30.699186-30.699186S847.267856 609.850585 830.312696 609.850585z" p-id="8702"></path><path d="M284.563034 747.056504l-101.317547 0c-16.954137 0-30.699186 13.745049-30.699186 30.699186s13.745049 30.699186 30.699186 30.699186l101.317547 0c16.954137 0 30.699186-13.745049 30.699186-30.699186S301.518195 747.056504 284.563034 747.056504z" p-id="8703"></path><path d="M557.437865 747.056504l-101.317547 0c-16.954137 0-30.699186 13.745049-30.699186 30.699186s13.745049 30.699186 30.699186 30.699186l101.317547 0c16.954137 0 30.699186-13.745049 30.699186-30.699186S574.392002 747.056504 557.437865 747.056504z" p-id="8704"></path><path d="M830.312696 747.056504l-101.317547 0c-16.954137 0-30.699186 13.745049-30.699186 30.699186s13.745049 30.699186 30.699186 30.699186l101.317547 0c16.954137 0 30.699186-13.745049 30.699186-30.699186S847.267856 747.056504 830.312696 747.056504z" p-id="8705"></path><path d="M92.174306 532.079314l633.458259 0c0.132006 0 0.26299-0.001023 0.393973-0.00307 62.079894-0.279363 120.398114-24.586978 164.326603-68.515467 44.185338-44.185338 68.518536-102.931301 68.518536-165.417447s-24.333198-121.233132-68.518536-165.417447c-44.184315-44.184315-102.930277-68.518536-165.416424-68.518536s-121.234155 24.333198-165.417447 68.518536c-44.185338 44.185338-68.518536 102.931301-68.518536 165.417447 0 16.954137 13.745049 30.699186 30.699186 30.699186s30.699186-13.745049 30.699186-30.699186c0-95.137801 77.400834-172.537611 172.537611-172.537611s172.536588 77.399811 172.536588 172.537611-77.399811 172.537611-172.536588 172.537611L92.174306 470.680942c-16.954137 0-30.699186 13.745049-30.699186 30.699186S75.220169 532.079314 92.174306 532.079314z" p-id="8706"></path></svg>