<?xml version="1.0" standalone="no"?><!DOCTYPE svg PUBLIC "-//W3C//DTD SVG 1.1//EN" "http://www.w3.org/Graphics/SVG/1.1/DTD/svg11.dtd"><svg t="1702665478084" class="icon" viewBox="0 0 1024 1024" version="1.1" xmlns="http://www.w3.org/2000/svg" p-id="5754" xmlns:xlink="http://www.w3.org/1999/xlink" width="200" height="200"><path d="M919.315172 418.134837c-15.698326-6.001903-85.285216-42.649374-103.151084-49.6437-16.717815-6.540969-39.26837-8.390485-54.132158-8.07697-153.045145 3.236652-332.987207 2.853216-502.197569 2.853216-24.341427 0-45.078555-0.624775-60.609973-8.613779a1063.020264 1063.020264 0 0 1-121.400388-74.61667c-34.829533-25.146643-0.464634-60.273903 28.818608-43.154608 30.043348 17.565885 63.862414 38.429322 89.336106 51.786432 18.616952 9.761833 27.086379 13.99993 52.311964 14.313445 159.358308 1.989357 365.680775 0.024811 522.402397 0.02481 9.953551 0 35.111471-0.597709 46.179242 2.869005 39.922467 12.500018 105.568987 49.979771 131.252441 66.226185 31.755278 20.083031 8.697233 60.37089-28.809586 46.032634z m0 184.126026c-15.698326-5.999648-85.285216-42.647119-103.151084-49.641444-16.717815-6.540969-39.26837-8.390485-54.132158-8.07697-153.045145 3.236652-332.987207 2.853216-502.197569 2.853216-24.341427 0-45.078555-0.624775-60.609973-8.616035a1063.28867 1063.28867 0 0 1-121.400388-74.614414c-34.829533-25.146643-0.464634-60.273903 28.818608-43.154608 30.043348 17.565885 63.862414 38.429322 89.336106 51.786432 18.616952 9.761833 27.086379 13.99993 52.311964 14.313445 159.358308 1.989357 365.680775 0.022555 522.402397 0.022555 9.953551 0 35.111471-0.595454 46.179242 2.87126 39.922467 12.500018 105.568987 49.979771 131.252441 66.226185 31.755278 20.083031 8.697233 60.37089-28.809586 46.030378z m0 184.128282c-15.698326-5.999648-85.285216-42.647119-103.151084-49.641445-16.717815-6.540969-39.26837-8.390485-54.132158-8.076969C608.986784 731.911894 429.044722 731.523947 259.834361 731.523947c-24.341427 0-45.078555-0.624775-60.609973-8.616035a1063.28867 1063.28867 0 0 1-121.400388-74.614414c-34.820511-25.146643-0.460123-60.282925 28.82763-43.154608 30.043348 17.56363 63.862414 38.429322 89.336106 51.786432 18.616952 9.761833 27.086379 13.997674 52.311964 14.313445 159.358308 1.989357 365.680775 0.022555 522.402397 0.022555 9.953551 0 35.111471-0.595454 46.179242 2.869004 39.922467 12.502273 105.568987 49.979771 131.252441 66.228441 31.746256 20.080775 8.688211 60.368634-28.818608 46.030378z" fill="#B0E0F7" p-id="5755"></path></svg>