<?xml version="1.0" standalone="no" ?>
<!DOCTYPE svg PUBLIC "-//W3C//DTD SVG 1.1//EN"
  "http://www.w3.org/Graphics/SVG/1.1/DTD/svg11.dtd">
<svg
  t="1709659111382"
  class="icon"
  viewBox="0 0 1024 1024"
  version="1.1"
  xmlns="http://www.w3.org/2000/svg"
  p-id="5237"
  xmlns:xlink="http://www.w3.org/1999/xlink"
  width="200"
  height="200"
><path
    d="M852.406388 63.83998 171.593612 63.83998c-24.449855 0-44.351114 19.900236-44.351114 44.350091l0 834.979996c0 9.04398 7.394411 16.45067 16.479323 16.45067 4.589528 0 9.005095-1.958608 12.104689-5.340635 65.149812-71.229275 109.822245-111.352087 118.934786-114.062825 12.869099 0.188288 31.54853 30.057573 45.196365 51.90516 20.639063 33.037441 40.138162 64.252373 68.680219 64.87045 28.300556 0 49.906643-31.240515 72.77242-64.332191 16.170285-23.349801 36.285414-52.442396 50.348712-52.442396 13.083993 0.213871 31.387871 28.554336 46.094828 51.368948 20.693298 32.04381 40.244586 62.345953 67.284429 63.929008 0.778736 0.054235 1.918699-0.025583 2.321882 0.054235 28.369118 0 53.032844-29.65746 79.133292-61.058634 18.451234-22.194488 41.291428-49.678446 57.582463-51.073212 8.884344 5.556553 37.681204 36.58115 92.096535 107.83703 4.293793 5.636371 10.803044 8.884344 17.83418 8.884344 12.493545 0 22.651906-10.145058 22.651906-22.598694L896.758526 108.190071C896.756479 83.740216 876.856243 63.83998 852.406388 63.83998zM869.274568 923.06824c-81.306794-105.474216-93.975325-106.467847-101.651145-107.0849-29.239951-2.442632-55.112202 28.42233-82.165348 60.951187-18.935258 22.812565-42.513256 51.15303-58.669214 51.15303l-0.014326 0c-13.137205-0.777713-31.267121-28.850072-45.840024-51.423183-21.054525-32.634258-40.954761-63.444984-69.337181-63.929008-28.314883 0-49.919946 31.240515-72.80005 64.304562-16.156982 23.378453-36.272112 52.470025-50.376341 52.470025-12.882402-0.295735-31.535227-30.167067-45.156456-51.958372-20.705578-33.119305-40.271192-64.414055-68.384483-64.816215-6.897084 0-24.542976-0.025583-120.155591 102.228289L154.724409 108.190071c0-9.286504 7.568373-16.868179 16.867156-16.868179l680.8138 0c9.299807 0 16.867156 7.581676 16.867156 16.868179L869.272521 923.06824zM606.471117 303.963896c3.677762 6.615675 1.27504 14.989389-5.367241 18.679431-6.52153 3.63683-14.761192 1.328251-18.532075-5.112438-0.778736-1.207501-13.231349-19.511379-56.024991-19.511379-73.362868 0-83.253122 27.201525-83.253122 53.824883l0 96.766904 82.44778 0c7.596002 0 13.741979 6.132674 13.741979 13.727653s-6.145977 13.754259-13.741979 13.754259l-82.44778 0 0 151.134139 137.41365 0c7.594979 0 13.740956 6.173606 13.740956 13.768585s-6.145977 13.71435-13.740956 13.71435L429.552731 654.710282l-13.741979 0-54.964846 0c-7.596002 0-13.741979-6.119371-13.741979-13.71435s6.145977-13.768585 13.741979-13.768585l54.964846 0L415.810752 476.093209l-54.964846 0c-7.596002 0-13.741979-6.15928-13.741979-13.754259s6.145977-13.727653 13.741979-13.727653l54.964846 0 0-96.766904c0-53.958936 37.251416-81.307817 110.736057-81.307817C586.235237 270.536576 604.580047 300.541961 606.471117 303.963896z"
    p-id="5238"
  /></svg>
