<?xml version="1.0" standalone="no"?><!DOCTYPE svg PUBLIC "-//W3C//DTD SVG 1.1//EN" "http://www.w3.org/Graphics/SVG/1.1/DTD/svg11.dtd"><svg t="1709661044848" class="icon" viewBox="0 0 1024 1024" version="1.1" xmlns="http://www.w3.org/2000/svg" p-id="6688" xmlns:xlink="http://www.w3.org/1999/xlink" width="200" height="200"><path d="M64 512c0 247.424 200.576 448 448 448s448-200.576 448-448S759.424 64 512 64 64 264.576 64 512z m842.24 0c0 217.728-176.512 394.24-394.24 394.24S117.76 729.728 117.76 512 294.272 117.76 512 117.76 906.24 294.272 906.24 512z" p-id="6689"></path><path d="M547.328 510.368q0 11.648-8.736 19.68-8.32 7.68-19.84 7.68h-53.248v60.16q0 23.68-15.36 45.024h186.624q11.52 0 19.84 7.68 8.704 8.032 8.704 19.68 0 11.616-8.736 19.68-8.288 7.648-19.84 7.648h-307.2v-48.608h12.8q30.176 0 48.928-15.744 17.088-14.336 17.088-35.36v-60.16h-59.776q-11.52 0-19.84-7.68Q320 522.016 320 510.4q0-11.616 8.736-19.68 8.32-7.68 19.84-7.68h59.776v-73.504q0-50.656 37.568-86.144Q483.36 288 536.96 288q53.632 0 91.072 35.36 37.536 35.488 37.536 86.144 0 11.552-8.48 19.584-8.192 7.744-19.808 7.744-11.648 0-19.776-7.872-8.224-7.968-8.224-19.456 0-27.488-20.736-46.944-21.184-19.904-51.712-19.904-30.4 0-51.104 19.84-20.256 19.36-20.256 47.008v73.536h53.248q11.52 0 19.84 7.648 8.736 8.032 8.736 19.68z" p-id="6690"></path></svg>