<?xml version="1.0" standalone="no" ?>
<!DOCTYPE svg PUBLIC "-//W3C//DTD SVG 1.1//EN"
  "http://www.w3.org/Graphics/SVG/1.1/DTD/svg11.dtd">
<svg
  t="1702665456686"
  class="icon"
  viewBox="0 0 1024 1024"
  version="1.1"
  xmlns="http://www.w3.org/2000/svg"
  p-id="5475"
  xmlns:xlink="http://www.w3.org/1999/xlink"
  width="200"
  height="200"
><path
    d="M874.4 684.8H149.6C68.8 684.8 4 619.2 4 539.2c0-61.6 38.4-116 95.2-136.8-4-15.2-6.4-31.2-6.4-47.2 0-95.2 77.6-172.8 172.8-172.8 33.6 0 65.6 9.6 93.6 28 52-76 136.8-120.8 230.4-120.8 153.6 0 279.2 125.6 279.2 279.2 0 8 0 16.8-0.8 24.8 83.2-4 152 63.2 152 145.6 0 80-65.6 145.6-145.6 145.6zM265.6 214.4c-77.6 0-140.8 63.2-140.8 140.8 0 17.6 3.2 35.2 9.6 52 1.6 4 1.6 8.8-0.8 13.6-2.4 4-5.6 7.2-10.4 8C72 440.8 36 486.4 36 539.2c0 63.2 51.2 113.6 113.6 113.6h724c62.4 0 113.6-51.2 113.6-113.6s-51.2-113.6-113.6-113.6c-7.2 0-14.4 0.8-21.6 2.4-4.8 0.8-10.4-0.8-14.4-4-4-4-5.6-8.8-4.8-14.4 2.4-13.6 3.2-27.2 3.2-40.8 0-136.8-111.2-247.2-247.2-247.2-87.2 0-166.4 44.8-212 120-2.4 4-6.4 6.4-11.2 7.2-4.8 0.8-9.6 0-12.8-3.2-24-20.8-54.4-31.2-87.2-31.2z"
    p-id="5476"
  /><path
    d="M874.4 596.8H149.6c-4.8 0-8-3.2-8-8s3.2-8 8-8h724c23.2 0 41.6-19.2 41.6-41.6 0-4.8 3.2-8 8-8s8 3.2 8 8c0.8 32-24.8 57.6-56.8 57.6zM163.2 935.2c-1.6 0-4 0-5.6-0.8-8-3.2-12-12.8-8.8-20.8l46.4-116c3.2-8 12.8-12 20.8-8.8 8 3.2 12 12.8 8.8 20.8l-46.4 116c-3.2 5.6-8.8 9.6-15.2 9.6zM352.8 935.2c-1.6 0-4 0-5.6-0.8-8-3.2-12-12.8-8.8-20.8l46.4-116c3.2-8 12.8-12 20.8-8.8 8 3.2 12 12.8 8.8 20.8L368 925.6c-2.4 5.6-8.8 9.6-15.2 9.6zM543.2 935.2c-1.6 0-4 0-5.6-0.8-8-3.2-12-12.8-8.8-20.8l46.4-116c3.2-8 12.8-12 20.8-8.8 8 3.2 12 12.8 8.8 20.8l-46.4 116c-2.4 5.6-8.8 9.6-15.2 9.6zM733.6 935.2c-1.6 0-4 0-5.6-0.8-8-3.2-12-12.8-8.8-20.8l46.4-116c3.2-8 12.8-12 20.8-8.8 8 3.2 12 12.8 8.8 20.8l-46.4 116c-3.2 5.6-8.8 9.6-15.2 9.6z"
    p-id="5477"
  /></svg>
