<?xml version="1.0" standalone="no" ?>
<!DOCTYPE svg PUBLIC "-//W3C//DTD SVG 1.1//EN"
  "http://www.w3.org/Graphics/SVG/1.1/DTD/svg11.dtd">
<svg
  t="1702665385274"
  class="icon"
  viewBox="0 0 1024 1024"
  version="1.1"
  xmlns="http://www.w3.org/2000/svg"
  p-id="5195"
  xmlns:xlink="http://www.w3.org/1999/xlink"
  width="200"
  height="200"
><path
    d="M512 817.6C343.2 817.6 206.4 680 206.4 512S343.2 206.4 512 206.4 817.6 344 817.6 512 680.8 817.6 512 817.6z m0-579.2c-151.2 0-273.6 123.2-273.6 273.6S360.8 785.6 512 785.6 785.6 663.2 785.6 512 663.2 238.4 512 238.4z"
    p-id="5196"
  /><path
    d="M721.6 520c-4.8 0-8-3.2-8-8 0-111.2-90.4-201.6-201.6-201.6-4.8 0-8-3.2-8-8s3.2-8 8-8C632 294.4 729.6 392 729.6 512c0 4.8-3.2 8-8 8zM512 143.2c-8.8 0-16-7.2-16-16V20c0-8.8 7.2-16 16-16s16 7.2 16 16v107.2c0 8.8-7.2 16-16 16zM512 1020c-8.8 0-16-7.2-16-16v-107.2c0-8.8 7.2-16 16-16s16 7.2 16 16v107.2c0 8.8-7.2 16-16 16zM1004 528h-107.2c-8.8 0-16-7.2-16-16s7.2-16 16-16h107.2c8.8 0 16 7.2 16 16s-7.2 16-16 16zM127.2 528H20c-8.8 0-16-7.2-16-16s7.2-16 16-16h107.2c8.8 0 16 7.2 16 16s-7.2 16-16 16zM784 256c-4 0-8-1.6-11.2-4.8-6.4-6.4-6.4-16 0-22.4l76-76c6.4-6.4 16-6.4 22.4 0 6.4 6.4 6.4 16 0 22.4l-76 76c-2.4 3.2-7.2 4.8-11.2 4.8zM164 876c-4 0-8-1.6-11.2-4.8-6.4-6.4-6.4-16 0-22.4l76-76c6.4-6.4 16-6.4 22.4 0 6.4 6.4 6.4 16 0 22.4l-76 76c-3.2 3.2-7.2 4.8-11.2 4.8zM860 876c-4 0-8-1.6-11.2-4.8l-76-76c-6.4-6.4-6.4-16 0-22.4 6.4-6.4 16-6.4 22.4 0l76 76c6.4 6.4 6.4 16 0 22.4-3.2 3.2-7.2 4.8-11.2 4.8zM240 256c-4 0-8-1.6-11.2-4.8l-76-76c-6.4-6.4-6.4-16 0-22.4 6.4-6.4 16-6.4 22.4 0l76 76c6.4 6.4 6.4 16 0 22.4-3.2 3.2-7.2 4.8-11.2 4.8zM655.2 170.4c-1.6 0-4 0-5.6-0.8-8-3.2-12-12.8-8.8-20.8l40-99.2c3.2-8 12.8-12 20.8-8.8 8 3.2 12 12.8 8.8 20.8l-40 99.2c-3.2 6.4-8.8 9.6-15.2 9.6zM328.8 984.8c-1.6 0-4 0-5.6-0.8-8-3.2-12-12.8-8.8-20.8l40-99.2c3.2-8 12.8-12 20.8-8.8 8 3.2 12 12.8 8.8 20.8l-40 99.2c-2.4 5.6-8.8 9.6-15.2 9.6zM968.8 711.2c-1.6 0-4 0-5.6-0.8l-99.2-40c-8-3.2-12-12.8-8.8-20.8 3.2-8 12.8-12 20.8-8.8l99.2 40c8 3.2 12 12.8 8.8 20.8-3.2 5.6-8.8 9.6-15.2 9.6zM154.4 384.8c-1.6 0-4 0-5.6-0.8L49.6 344c-8-3.2-12-12.8-8.8-20.8 3.2-8 12.8-12 20.8-8.8l99.2 40c8 3.2 12 12.8 8.8 20.8-2.4 5.6-8.8 9.6-15.2 9.6zM865.6 376.8c-6.4 0-12-4-14.4-9.6-3.2-8 0-17.6 8.8-20.8l98.4-42.4c8-3.2 17.6 0 20.8 8.8 3.2 8 0 17.6-8.8 20.8L872 375.2c-1.6 0.8-4 1.6-6.4 1.6zM60 721.6c-6.4 0-12-4-14.4-9.6-3.2-8 0-17.6 8.8-20.8L152 648.8c8-3.2 17.6 0 20.8 8.8 3.2 8 0 17.6-8.8 20.8L65.6 720c-1.6 0.8-4 1.6-5.6 1.6zM705.6 980c-6.4 0-12-4-14.4-9.6L648.8 872c-3.2-8 0-17.6 8.8-20.8 8-3.2 17.6 0 20.8 8.8l42.4 98.4c3.2 8 0 17.6-8.8 20.8-2.4 0.8-4 0.8-6.4 0.8zM360.8 174.4c-6.4 0-12-4-14.4-9.6L304 65.6c-3.2-8 0-17.6 8.8-20.8 8-3.2 17.6 0 20.8 8.8L375.2 152c3.2 8 0 17.6-8.8 20.8-1.6 0.8-4 1.6-5.6 1.6z"
    p-id="5197"
  /></svg>
