<?xml version="1.0" standalone="no"?><!DOCTYPE svg PUBLIC "-//W3C//DTD SVG 1.1//EN" "http://www.w3.org/Graphics/SVG/1.1/DTD/svg11.dtd"><svg t="1702736614469" class="icon" viewBox="0 0 1024 1024" version="1.1" xmlns="http://www.w3.org/2000/svg" p-id="4535" id="mx_n_1702736614470" xmlns:xlink="http://www.w3.org/1999/xlink" width="200" height="200"><path d="M523.818667 442.794667l1.706666 0.042666a4.266667 4.266667 0 0 1 3.2 5.12l-37.973333 170.709334h133.077333a8.533333 8.533333 0 0 1 7.04 13.397333l-170.368 246.016a4.266667 4.266667 0 0 1-7.68-3.328l37.973334-170.752H357.76a8.533333 8.533333 0 0 1-7.04-13.397333l170.368-246.016a4.266667 4.266667 0 0 1 2.730667-1.792z m-193.024 285.397333v0.042667a21.333333 21.333333 0 0 1 7.808 29.098666l-42.666667 73.898667a21.333333 21.333333 0 1 1-36.949333-21.333333l42.666666-73.898667a21.333333 21.333333 0 0 1 29.141334-7.808z m384 0v0.042667a21.333333 21.333333 0 0 1 7.808 29.098666l-42.666667 73.898667a21.333333 21.333333 0 0 1-36.949333-21.333333l42.666666-73.898667a21.333333 21.333333 0 0 1 29.141334-7.808zM426.794667 170.666667a192.085333 192.085333 0 0 1 182.186666 131.285333 149.333333 149.333333 0 0 1 179.2 126.72l6.272-0.981333c2.858667-0.384 5.76-0.64 8.704-0.810667L810.666667 426.666667a128 128 0 0 1 15.701333 255.061333l-8.106667 0.768-7.466666 0.170667H691.2a8.533333 8.533333 0 0 1-8.533333-8.533334v-25.642666c0-4.693333 3.84-8.533333 8.533333-8.533334h120.661333l5.162667-0.170666A85.333333 85.333333 0 0 0 810.709333 469.333333l-7.594666 0.341334-7.509334 0.981333-43.946666 7.765333-5.76-44.288a106.666667 106.666667 0 0 0-120.746667-91.733333l-7.253333 1.28-37.333334 7.978667-12.032-36.266667a149.418667 149.418667 0 0 0-289.194666 23.509333l-1.024 8.021334-3.541334 33.962666-33.877333 4.010667a128 128 0 0 0 7.68 254.890667l7.552 0.213333H290.133333c4.693333 0 8.533333 3.84 8.533334 8.533333v25.6a8.533333 8.533333 0 0 1-8.533334 8.533334h-34.005333a170.666667 170.666667 0 0 1-20.266667-340.138667A191.957333 191.957333 0 0 1 426.794667 170.666667z" fill="#515151" p-id="4536"></path></svg>