<?xml version="1.0" standalone="no"?><!DOCTYPE svg PUBLIC "-//W3C//DTD SVG 1.1//EN" "http://www.w3.org/Graphics/SVG/1.1/DTD/svg11.dtd"><svg t="1702736801242" class="icon" viewBox="0 0 1024 1024" version="1.1" xmlns="http://www.w3.org/2000/svg" p-id="13037" xmlns:xlink="http://www.w3.org/1999/xlink" width="200" height="200"><path d="M334.67 855.97h-32.66c-9.02 0-16.34 7.32-16.34 16.34s7.32 16.34 16.34 16.34h32.66c9.02 0 16.34-7.32 16.34-16.34s-7.32-16.34-16.34-16.34zM400.01 790.65H269.34c-9.02 0-16.33 7.3-16.33 16.32s7.31 16.34 16.33 16.34h130.67c9.02 0 16.33-7.32 16.33-16.34s-7.31-16.32-16.33-16.32zM383.67 741.65c0-9.02-7.31-16.34-16.33-16.34h-98c-9.02 0-16.33 7.32-16.33 16.34s7.31 16.32 16.33 16.32h98c9.02 0 16.33-7.29 16.33-16.32z" fill="#CCD1D9" p-id="13038"></path><path d="M465.34 659.97H236.67c-9.02 0-16.33 7.32-16.33 16.34s7.31 16.34 16.33 16.34h228.67c9.02 0 16.33-7.32 16.33-16.34s-7.31-16.34-16.33-16.34zM530.67 594.66H269.34c-9.02 0-16.33 7.3-16.33 16.32s7.31 16.34 16.33 16.34h261.33c9.02 0 16.34-7.32 16.34-16.34s-7.32-16.32-16.34-16.32zM596.01 529.31H334.67c-9.02 0-16.33 7.32-16.33 16.34s7.31 16.32 16.33 16.32h261.34c9.02 0 16.33-7.3 16.33-16.32s-7.31-16.34-16.33-16.34z" fill="#AAB2BC" p-id="13039"></path><path d="M694.01 463.97H236.67c-9.02 0-16.33 7.32-16.33 16.34s7.31 16.34 16.33 16.34h457.34c9.02 0 16.33-7.32 16.33-16.34s-7.31-16.34-16.33-16.34zM171.34 431.32h457.33c9.02 0 16.34-7.32 16.34-16.34s-7.32-16.32-16.34-16.32H171.34c-9.02 0-16.33 7.3-16.33 16.32s7.31 16.34 16.33 16.34zM694.01 333.32H236.67c-9.02 0-16.33 7.3-16.33 16.34 0 9.02 7.31 16.32 16.33 16.32h457.34c9.02 0 16.33-7.3 16.33-16.32 0-9.04-7.31-16.34-16.33-16.34z" fill="#656D78" p-id="13040"></path><path d="M792.01 300.66c9.02 0 16.33-7.32 16.33-16.34s-7.31-16.34-16.33-16.34H269.34c-9.02 0-16.33 7.32-16.33 16.34s7.31 16.34 16.33 16.34h522.67zM628.67 202.66H204.01c-9.02 0-16.34 7.3-16.34 16.32s7.32 16.34 16.34 16.34h424.65c9.02 0 16.34-7.32 16.34-16.34 0.01-9.02-7.31-16.32-16.33-16.32zM890 137.32H138.67c-9.02 0-16.33 7.32-16.33 16.34s7.31 16.32 16.33 16.32H890c9.02 0 16.33-7.3 16.33-16.32s-7.31-16.34-16.33-16.34z" fill="#434A54" p-id="13041"></path></svg>