<?xml version="1.0" standalone="no"?><!DOCTYPE svg PUBLIC "-//W3C//DTD SVG 1.1//EN" "http://www.w3.org/Graphics/SVG/1.1/DTD/svg11.dtd"><svg t="1702736772794" class="icon" viewBox="0 0 1024 1024" version="1.1" xmlns="http://www.w3.org/2000/svg" p-id="12033" id="mx_n_1702736772795" xmlns:xlink="http://www.w3.org/1999/xlink" width="200" height="200"><path d="M776.512 64C914.645333 69.098667 1024 182.570667 1024 320.789333c0 138.24-109.354667 251.712-247.488 256.810667H34.965333a34.965333 34.965333 0 0 1 0-69.930667h741.546667a187.050667 187.050667 0 0 0 0-373.76 187.050667 187.050667 0 0 0-187.050667 186.709334 34.965333 34.965333 0 0 1-69.930666 0A256.64 256.64 0 0 1 776.533333 64z m-130.069333 604.16h1.749333a146.133333 146.133333 0 0 1 0 291.925333 142.997333 142.997333 0 0 1-88.789333-30.421333 144.384 144.384 0 0 1-58.752-115.733333 34.965333 34.965333 0 1 1 69.930666 0 75.178667 75.178667 0 0 0 29.717334 60.138666 74.112 74.112 0 0 0 46.144 16.085334 76.224 76.224 0 0 0 0-152.106667H195.456a34.965333 34.965333 0 0 1 0-69.909333h450.986667zM34.986667 417.088a34.965333 34.965333 0 0 1 0-69.909333h320.938666a34.965333 34.965333 0 1 1 0 69.909333H34.986667z" fill="#000000" p-id="12034"></path></svg>